<?xml version="1.0" encoding="UTF-8"?>
<svg id="Layer_2" data-name="Layer 2" xmlns="http://www.w3.org/2000/svg" viewBox="0 0 1294.06 17.29">
  <defs>
    <style>
      .cls-1 {
        fill: #000;
        stroke-width: 0px;
      }
    </style>
  </defs>
  <g id="Vector_shapes" data-name="Vector shapes">
    <path class="cls-1" d="M657.87,7.47c7.74.92,21.54,1.1,45.92,1.12,2.38,0,4.83,0,7.38,0,3.39,0,6.95,0,10.71,0h572.19v.1h-572.19c-3.76,0-7.32,0-10.71,0-2.55,0-5,0-7.35,0-24.41.02-38.21.2-45.95,1.12-8.62,1.02-10.22,3.04-10.4,6.91.03.75-.9.75-.87,0-.18-3.87-1.79-5.89-10.4-6.91-7.74-.92-21.54-1.1-45.92-1.12-2.37,0-4.8,0-7.34,0-3.4,0-6.97,0-10.74,0H0v-.1h572.31c3.74,0,7.29,0,10.66,0,2.52,0,4.95,0,7.28,0,24.41-.02,38.21-.2,45.95-1.12,8.62-1.02,10.22-3.04,10.4-6.91-.03-.75.9-.75.87,0,.18,3.87,1.79,5.89,10.4,6.91"/>
  </g>
</svg>