<?xml version="1.0" encoding="UTF-8"?>
<svg id="Layer_2" data-name="Layer 2" xmlns="http://www.w3.org/2000/svg" viewBox="0 0 1294.06 177.24">
  <defs>
    <style>
      .cls-1 {
        fill: #000;
        stroke-width: 0px;
      }
    </style>
  </defs>
  <g id="Vector_shapes" data-name="Vector shapes">
    <path class="cls-1" d="M646.59,177.24c-.02-7.35-.03-14.29,0-20.56-.18-32.57-1.79-49.57-10.4-58.18-7.74-7.73-21.54-9.25-45.92-9.44-2.37.02-4.8.02-7.34.02-3.4,0-6.97-.01-10.74-.02H0v-.87h572.31c3.74-.01,7.29-.03,10.66-.03,2.52,0,4.95,0,7.28.02,24.41-.2,38.21-1.71,45.95-9.44,8.62-8.61,10.22-25.61,10.4-58.16-.03-6.29-.02-13.23,0-20.57h.88c.02,7.35.03,14.29,0,20.56.18,32.57,1.79,49.57,10.4,58.18,7.74,7.73,21.54,9.25,45.92,9.44,2.38-.02,4.83-.02,7.38-.02,3.39,0,6.95.01,10.71.02h572.19v.87h-572.19c-3.76.02-7.32.03-10.71.03-2.55,0-5,0-7.35-.02-24.41.2-38.21,1.71-45.95,9.44-8.62,8.61-10.22,25.61-10.4,58.16.03,6.29.02,13.23,0,20.57h-.88Z"/>
  </g>
</svg>